<?xml version="1.0" encoding="UTF-8" standalone="no"?>
<!-- Created with Inkscape (http://www.inkscape.org/) -->

<svg
   width="128mm"
   height="128mm"
   viewBox="0 0 128 128"
   version="1.1"
   id="svg1"
   inkscape:version="1.3.2 (091e20e, 2023-11-25, custom)"
   sodipodi:docname="PointBox.svg"
   xmlns:inkscape="http://www.inkscape.org/namespaces/inkscape"
   xmlns:sodipodi="http://sodipodi.sourceforge.net/DTD/sodipodi-0.dtd"
   xmlns="http://www.w3.org/2000/svg"
   xmlns:svg="http://www.w3.org/2000/svg">
  <sodipodi:namedview
     id="namedview1"
     pagecolor="#505050"
     bordercolor="#ffffff"
     borderopacity="1"
     inkscape:showpageshadow="0"
     inkscape:pageopacity="0"
     inkscape:pagecheckerboard="1"
     inkscape:deskcolor="#505050"
     inkscape:document-units="mm"
     inkscape:zoom="0.97890839"
     inkscape:cx="324.85164"
     inkscape:cy="319.23314"
     inkscape:window-width="1920"
     inkscape:window-height="991"
     inkscape:window-x="-9"
     inkscape:window-y="-9"
     inkscape:window-maximized="1"
     inkscape:current-layer="layer1"
     showgrid="false" />
  <defs
     id="defs1" />
  <g
     inkscape:label="Layer 1"
     inkscape:groupmode="layer"
     id="layer1">
    <rect
       style="fill:#333333;fill-opacity:1;stroke:#000000;stroke-width:13.4952;stroke-linecap:round;stroke-linejoin:round;stroke-opacity:1;paint-order:stroke markers fill"
       id="rect1"
       width="114.34805"
       height="114.3493"
       x="6.8832979"
       y="7.4232397"
       ry="2.178082" />
    <rect
       style="fill:#c72f00;fill-opacity:1;stroke:#000000;stroke-width:9.40823;stroke-linecap:round;stroke-linejoin:round;stroke-opacity:1;paint-order:stroke markers fill"
       id="rect3"
       width="114.42307"
       height="15.683876"
       x="7.0290504"
       y="60.567589"
       ry="1.0816467" />
    <rect
       style="fill:#c72f00;fill-opacity:1;stroke:#000000;stroke-width:13.4952;stroke-linecap:round;stroke-linejoin:round;stroke-opacity:1;paint-order:stroke markers fill"
       id="rect2"
       width="35.184013"
       height="35.938351"
       x="47.198311"
       y="46.991726"
       ry="2.178082" />
    <path
       style="fill:#f9f9f9;stroke:#000000;stroke-width:38.6096;stroke-linecap:round;stroke-linejoin:round;paint-order:stroke markers fill"
       d="m 181.97296,310.98663 -2.69163,-2.11724 v -63.08364 -63.08364 l 2.36432,-2.22116 2.36432,-2.22116 h 61.01797 61.01797 l 2.50743,2.50743 2.50743,2.50743 v 61.29113 c 0,42.7433 -0.34323,62.04443 -1.13419,63.78042 -0.62381,1.36909 -2.25438,2.99967 -3.62347,3.62347 -1.73345,0.78981 -20.57861,1.13419 -62.06391,1.13419 -58.72321,0 -59.61308,-0.0303 -62.26624,-2.11723 z"
       id="path1"
       transform="scale(0.26458333)" />
    <path
       style="fill:#f9f9f9;stroke:#000000;stroke-width:38.6096;stroke-linecap:round;stroke-linejoin:round;paint-order:stroke markers fill"
       d="m 28.296826,286.33936 c -1.745807,-1.74581 -1.745807,-54.03061 0,-55.77642 0.926337,-0.92633 16.276633,-1.22585 62.825082,-1.22585 h 61.599222 v 29.11406 29.11406 H 91.121908 c -46.548449,0 -61.898745,-0.29951 -62.825082,-1.22585 z"
       id="path2"
       transform="scale(0.26458333)" />
    <path
       style="fill:#f9f9f9;stroke:#000000;stroke-width:38.6096;stroke-linecap:round;stroke-linejoin:round;paint-order:stroke markers fill"
       d="m 337.62097,258.45932 v -29.12223 l 58.99428,0.0156 c 32.44686,0.009 59.57645,0.38517 60.28797,0.8368 1.00355,0.637 1.23266,7.10572 1.02155,28.84304 l -0.27214,28.02187 -60.01583,0.26355 -60.01583,0.26355 z"
       id="path3"
       transform="scale(0.26458333)" />
  </g>
</svg>
